IKResults
version=1
nRows=8
nColumns=40
inDegrees=yes

Units are S.I. units (second, meters, Newtons, ...)
Angles are in degrees.

endheader
time	pelvis_tilt	pelvis_list	pelvis_rotation	pelvis_tx	pelvis_ty	pelvis_tz	hip_flexion_r	hip_adduction_r	hip_rotation_r	knee_angle_r	knee_angle_r_beta	ankle_angle_r	subtalar_angle_r	mtp_angle_r	hip_flexion_l	hip_adduction_l	hip_rotation_l	knee_angle_l	knee_angle_l_beta	ankle_angle_l	subtalar_angle_l	mtp_angle_l	lumbar_extension	lumbar_bending	lumbar_rotation	arm_flex_r	arm_add_r	arm_rot_r	elbow_flex_r	pro_sup_r	wrist_flex_r	wrist_dev_r	arm_flex_l	arm_add_l	arm_rot_l	elbow_flex_l	pro_sup_l	wrist_flex_l	wrist_dev_l
      1.05000000	     18.20669337	      1.61401173	     -2.74504254	      0.35961916	      0.94520301	      1.44209224	     -4.53840989	     -3.75692398	     -0.84322740	    -67.25406177	     -1.17380481	     -8.13822964	    -16.01660974	     13.16045705	     -6.40231688	     -5.26370449	     13.69950631	    -23.54748014	     -0.41098106	     10.48836270	      7.95808691	     -3.33675746	    -26.11083859	     -4.05382259	      1.37928541	     -3.38987345	    -13.62015288	      4.16068736	     33.14683877	     89.95437384	      0.00000000	      0.00000000	     -1.97955422	      9.22048139	     10.92121071	     16.36217825	     89.95437384	      0.00000000	      0.00000000
      1.06000000	     18.14946667	      1.14145458	     -2.31712766	      0.37336702	      0.94785291	      1.44113921	     -3.14929503	     -2.81602878	     -0.62107084	    -66.48896943	     -1.16045143	     -5.86441595	    -16.59272775	     13.17431513	     -7.92405016	     -4.95578017	     12.76784051	    -22.39502386	     -0.39086690	     10.60504085	      7.57360469	     -3.33669364	    -25.98339591	     -3.38132493	      1.00117759	     -3.47405085	    -13.40690965	      4.56246209	     31.28125480	     89.95437384	      0.00000000	      0.00000000	     -0.98502117	      9.24570052	     10.83504332	     17.03843220	     89.95437384	      0.00000000	      0.00000000
      1.07000000	     18.08942085	      0.72239933	     -1.80765441	      0.38706040	      0.95004953	      1.43979430	     -1.73567949	     -2.26557477	     -1.04492519	    -65.56050696	     -1.14424671	     -4.00373668	    -16.88667659	     13.31228133	     -9.34471940	     -4.59021065	     12.34846470	    -21.37428028	     -0.37305157	     10.74320073	      7.39657408	     -3.31633097	    -25.88071179	     -2.68336946	      0.64492791	     -3.90626419	    -13.37385160	      4.95306807	     30.06096619	     89.95437384	      0.00000000	      0.00000000	      0.03246416	      9.23573094	     10.91574865	     17.90659070	     89.95437384	      0.00000000	      0.00000000
      1.08000000	     18.39927902	      0.33206986	     -1.17725209	      0.40114158	      0.95261575	      1.43820007	     -0.98381283	     -1.83414257	     -1.75564121	    -64.05918482	     -1.11804369	     -2.34146961	    -16.94725563	     14.47349430	    -11.42060575	     -4.25753809	     11.93797880	    -19.89888379	     -0.34730104	     10.70774022	      7.26257637	     -3.29953425	    -26.14503259	     -1.97023501	      0.08921061	     -4.38991159	    -13.40170694	      5.43322349	     29.09145899	     89.95437384	      0.00000000	      0.00000000	      0.92267978	      9.22185697	     11.01604978	     18.99358974	     89.95437384	      0.00000000	      0.00000000
      1.09000000	     17.84172928	      0.17668888	     -0.84957036	      0.41443626	      0.95325442	      1.43673422	      1.05612154	     -1.84120536	     -2.44278853	    -62.86252289	     -1.09715800	     -1.27859314	    -17.19620382	     14.29415059	    -12.07534874	     -4.09018129	     12.38684326	    -19.27317433	     -0.33638035	     10.93272582	      7.09111913	     -3.24049154	    -25.51961049	     -1.57322705	     -0.07612500	     -5.09674584	    -13.41816893	      5.52779697	     28.35643217	     89.95437384	      0.00000000	      0.00000000	      2.01387183	      9.20459516	     10.90952102	     19.89750239	     89.95437384	      0.00000000	      0.00000000
      1.10000000	     18.14008203	     -0.28084904	     -0.17555658	      0.42823437	      0.95511252	      1.43534996	      1.65626609	     -1.27622171	     -3.18378117	    -60.86257586	     -1.06225234	      0.50043399	    -17.55193489	     15.76156405	    -14.09000365	     -3.62104076	     11.70181155	    -17.79644447	     -0.31060655	     10.90973466	      6.33708138	     -3.25785619	    -25.80441365	     -0.80190028	     -0.52359828	     -5.59466416	    -13.23430386	      5.15672636	     27.32449631	     89.95437384	      0.00000000	      0.00000000	      2.89673381	      9.28915780	     10.56097825	     21.24827898	     89.95437384	      0.00000000	      0.00000000
      1.11000000	     17.53211730	     -0.28854659	      0.10009825	      0.44145766	      0.95489467	      1.43387330	      3.60956437	     -1.50738810	     -3.92475500	    -59.26327332	     -1.03433924	      1.27528772	    -17.67535422	     15.59461177	    -14.50788841	     -3.59345070	     12.08003426	    -17.46143186	     -0.30475948	     11.13231546	      6.16241104	     -3.20204523	    -25.13304260	     -0.58999601	     -0.68218130	     -6.31534190	    -13.27940616	      5.16123794	     26.70911086	     89.95437384	      0.00000000	      0.00000000	      3.91932606	      9.26761447	     10.45861690	     22.36332006	     89.95437384	      0.00000000	      0.00000000
      1.12000000	     17.81689568	     -0.71493121	      1.11492367	      0.45524859	      0.95594429	      1.43222196	      4.00209556	     -1.15025335	     -5.36798202	    -56.75690339	     -0.99059484	      2.64881052	    -17.92922014	     17.59545543	    -16.27210710	     -2.98712101	     11.12253219	    -16.31814451	     -0.28480535	     11.31514029	      5.61115701	     -3.41228546	    -25.40641246	      0.25200048	     -1.44584004	     -6.73880578	    -12.95122217	      4.17660774	     25.66101975	     89.95437384	      0.00000000	      0.00000000	      4.61791577	      9.54606514	      9.55942754	     24.09579218	     89.95437384	      0.00000000	      0.00000000
